							<svg xmlns="http://www.w3.org/2000/svg" id="Layer_1" data-name="Layer 1" viewBox="0 0 95 95"><defs><style>.cls-1{fill:#fff;}</style></defs><path class="cls-1" d="M38.84,68.49H37.51l-.68-.12a9.18,9.18,0,0,1-3.9-2,25.84,25.84,0,0,1-3.85-4.11,41.73,41.73,0,0,1-6.23-10.73A40.41,40.41,0,0,1,20,39.48c0-.33-.05-.66-.08-1V36.11c0-.08,0-.15,0-.23.06-.75.11-1.51.2-2.25a20.46,20.46,0,0,1,2.71-8.1,17.34,17.34,0,0,1,7.4-6.92A16.45,16.45,0,0,1,35.74,17a12.35,12.35,0,0,1,2.85,0A22.78,22.78,0,0,1,43,18.1c1.57.54,3.15,1.08,4.73,1.59a3.21,3.21,0,0,0,2,.12c.44-.14.9-.25,1.34-.4,1.75-.59,3.48-1.22,5.24-1.78a16.54,16.54,0,0,1,5.26-.88,19.66,19.66,0,0,1,4.63.65,15.49,15.49,0,0,1,8.35,5.2c.24.3.47.61.71.93l-.18.12c-.51.36-1,.69-1.55,1.07a13.77,13.77,0,0,0-5.7,9.44,15.63,15.63,0,0,0,.67,7.28,15.22,15.22,0,0,0,7.12,8.24c.47.27,1,.48,1.45.73a.88.88,0,0,1,0,.15A39.69,39.69,0,0,1,74.71,56a43.26,43.26,0,0,1-4.48,6.81,19.54,19.54,0,0,1-3.63,3.75,8.42,8.42,0,0,1-7.09,1.68A23.32,23.32,0,0,1,55.66,67a15.93,15.93,0,0,0-5.28-1.21A16.26,16.26,0,0,0,44,67c-1.16.44-2.34.83-3.53,1.19A14.67,14.67,0,0,1,38.84,68.49Z"></path><path class="cls-1" d="M62.77.69c0,.71,0,1.41,0,2.1a15,15,0,0,1-4.61,9.75A14.3,14.3,0,0,1,53.21,16a10.3,10.3,0,0,1-4.39.75c-.2,0-.25-.08-.27-.26A13.06,13.06,0,0,1,50.1,9.24,15.77,15.77,0,0,1,60.39,1.06,18.42,18.42,0,0,1,62.49.7,1.13,1.13,0,0,1,62.77.69Z"></path><path class="cls-1" d="M31.8,78.66h3.06v2.57H31.8Zm.08,3.7h2.9V92.59h-2.9Z"></path><path class="cls-1" d="M37.22,86v0A6.91,6.91,0,0,1,44.34,79a6.85,6.85,0,0,1,7.09,6.87v0a6.91,6.91,0,0,1-7.12,6.91A6.85,6.85,0,0,1,37.22,86Zm11.13,0v0a4.06,4.06,0,0,0-4-4.2,4,4,0,0,0-4,4.16v0a4.06,4.06,0,0,0,4,4.2A4,4,0,0,0,48.35,86Z"></path><path class="cls-1" d="M53,90.64l1.74-2.08a6.13,6.13,0,0,0,4,1.62c1.2,0,1.93-.47,1.93-1.26v0c0-.75-.46-1.13-2.69-1.7-2.69-.69-4.43-1.43-4.43-4.09v0c0-2.42,1.95-4,4.68-4a7.74,7.74,0,0,1,5,1.7L61.67,83a6.28,6.28,0,0,0-3.47-1.32c-1.13,0-1.72.52-1.72,1.17v0c0,.87.57,1.16,2.88,1.75,2.71.71,4.24,1.68,4.24,4v0c0,2.65-2,4.14-4.91,4.14A8.53,8.53,0,0,1,53,90.64Z"></path></svg>