							<svg xmlns="http://www.w3.org/2000/svg" id="Layer_1" data-name="Layer 1" viewBox="0 0 95 95"><defs><style>.cls-1{fill:#fff;}</style></defs><polygon class="cls-1" points="41.08 33.73 13.51 33.73 13.51 10.71 41.08 7.06 41.08 33.73"></polygon><polygon class="cls-1" points="41.08 36.52 13.51 36.52 13.51 59.55 41.08 63.19 41.08 36.52"></polygon><polygon class="cls-1" points="80.92 33.73 44.34 33.73 44.34 6.4 80.92 1.32 80.92 33.73"></polygon><polygon class="cls-1" points="80.92 36.52 44.34 36.52 44.34 63.85 80.92 68.93 80.92 36.52"></polygon><path class="cls-1" d="M3.28,79.38H6.43L9.2,88.43l3-9.09h2.52l3,9.09,2.77-9.05h3.07L19,92.84H16.43l-3-8.74-3,8.74H7.84Z"></path><path class="cls-1" d="M25.19,78.81h3v2.58h-3Zm.08,3.7h2.9V92.74h-2.9Z"></path><path class="cls-1" d="M30.9,82.51h2.9V84a3.61,3.61,0,0,1,3-1.64c2.2,0,3.48,1.45,3.48,3.8v6.62h-2.9V87c0-1.38-.65-2.08-1.76-2.08s-1.81.7-1.81,2.08v5.7H30.9Z"></path><path class="cls-1" d="M42.33,87.65v0c0-3.42,2.23-5.29,4.66-5.29a3.92,3.92,0,0,1,3.18,1.53v-5h2.91V92.74H50.17V91.27A3.74,3.74,0,0,1,47,92.94C44.6,92.94,42.33,91.06,42.33,87.65Zm7.88,0v0a2.51,2.51,0,1,0-5,0v0a2.51,2.51,0,1,0,5,0Z"></path><path class="cls-1" d="M55.17,87.69v0a5.38,5.38,0,0,1,5.56-5.33,5.32,5.32,0,0,1,5.52,5.29v0A5.37,5.37,0,0,1,60.69,93,5.31,5.31,0,0,1,55.17,87.69Zm8.21,0v0a2.72,2.72,0,0,0-2.69-2.83A2.62,2.62,0,0,0,58,87.61v0a2.71,2.71,0,0,0,2.69,2.82A2.62,2.62,0,0,0,63.38,87.69Z"></path><path class="cls-1" d="M67,82.51H70l1.65,6.21,1.92-6.25H76l2,6.27,1.68-6.23h2.88L79.36,92.82H76.74l-2-6.28-2,6.28h-2.6Z"></path><path class="cls-1" d="M83.21,91.39l1.24-1.91a5.8,5.8,0,0,0,3.22,1.22c.84,0,1.23-.3,1.23-.76v0c0-.63-1-.84-2.12-1.18-1.43-.42-3.06-1.09-3.06-3.08v0c0-2.08,1.68-3.24,3.74-3.24a7.13,7.13,0,0,1,3.82,1.18l-1.11,2a6.08,6.08,0,0,0-2.76-1c-.71,0-1.07.31-1.07.71v0c0,.57,1,.84,2.08,1.22,1.43.48,3.09,1.16,3.09,3v0c0,2.27-1.7,3.31-3.91,3.31A7.16,7.16,0,0,1,83.21,91.39Z"></path></svg>
            