<svg xmlns="http://www.w3.org/2000/svg" id="Layer_1" data-name="Layer 1" viewBox="0 0 95 95"><defs><style>.cls-1{fill:#fff;}</style></defs><path class="cls-1" d="M38.81,69.18H37.48l-.68-.12a9.18,9.18,0,0,1-3.9-2A25.84,25.84,0,0,1,29.05,63a41.73,41.73,0,0,1-6.23-10.73A40.41,40.41,0,0,1,20,40.17c0-.33,0-.66-.08-1V36.8c0-.08,0-.15,0-.23.06-.75.11-1.51.2-2.25a20.46,20.46,0,0,1,2.71-8.1,17.34,17.34,0,0,1,7.4-6.92,16.45,16.45,0,0,1,5.45-1.59,12.35,12.35,0,0,1,2.85,0A22.78,22.78,0,0,1,43,18.79c1.57.54,3.15,1.08,4.73,1.59a3.21,3.21,0,0,0,2,.12c.44-.14.9-.25,1.34-.4,1.75-.59,3.48-1.22,5.24-1.78a16.54,16.54,0,0,1,5.26-.88,19.66,19.66,0,0,1,4.63.65,15.49,15.49,0,0,1,8.35,5.2c.24.3.47.61.71.93l-.18.12c-.51.36-1.05.69-1.55,1.07a13.77,13.77,0,0,0-5.7,9.44,15.63,15.63,0,0,0,.67,7.28,15.22,15.22,0,0,0,7.12,8.24c.47.27,1,.48,1.45.73a.88.88,0,0,1,0,.15,39.69,39.69,0,0,1-2.3,5.42,43.26,43.26,0,0,1-4.48,6.81,19.54,19.54,0,0,1-3.63,3.75,8.42,8.42,0,0,1-7.09,1.68,23.32,23.32,0,0,1-3.85-1.23,15.93,15.93,0,0,0-5.28-1.21A16.22,16.22,0,0,0,44,67.67c-1.16.44-2.34.83-3.53,1.19A14.67,14.67,0,0,1,38.81,69.18Z"></path><path class="cls-1" d="M62.74,1.38c0,.71,0,1.41,0,2.1a15,15,0,0,1-4.61,9.75,14.3,14.3,0,0,1-4.94,3.44,10.3,10.3,0,0,1-4.39.75c-.2,0-.25-.08-.27-.26a13,13,0,0,1,1.55-7.23A15.77,15.77,0,0,1,60.36,1.75a18.42,18.42,0,0,1,2.1-.36A1.13,1.13,0,0,1,62.74,1.38Z"></path><path class="cls-1" d="M16.52,79.38h3.17L23.21,85l3.51-5.65h3.17V92.74H27V84l-3.76,5.71h-.08l-3.72-5.65v8.66H16.52Z"></path><path class="cls-1" d="M32.17,89.8v0c0-2.24,1.7-3.27,4.13-3.27a7.25,7.25,0,0,1,2.5.42v-.17c0-1.2-.75-1.87-2.2-1.87a7.58,7.58,0,0,0-2.82.55l-.73-2.21a9,9,0,0,1,4-.82,4.76,4.76,0,0,1,3.46,1.14,4.49,4.49,0,0,1,1.11,3.27v5.93H38.78v-1.1a4,4,0,0,1-3.09,1.3C33.76,92.94,32.17,91.83,32.17,89.8Zm6.67-.66v-.52A4.51,4.51,0,0,0,37,88.24c-1.25,0-2,.5-2,1.41v0c0,.78.65,1.24,1.59,1.24C37.92,90.93,38.84,90.19,38.84,89.14Z"></path><path class="cls-1" d="M43.59,87.69v0A5.25,5.25,0,0,1,49,82.32,5,5,0,0,1,53,84L51.26,86a3,3,0,0,0-2.33-1.13,2.62,2.62,0,0,0-2.48,2.79v0a2.62,2.62,0,0,0,2.6,2.82,3.25,3.25,0,0,0,2.35-1.09l1.7,1.72A5.16,5.16,0,0,1,48.92,93,5.22,5.22,0,0,1,43.59,87.69Z"></path><path class="cls-1" d="M54.7,86.1v0a7.1,7.1,0,0,1,14.2,0v0a7.1,7.1,0,0,1-14.2,0Zm11.13,0v0a4.06,4.06,0,0,0-4-4.2,4,4,0,0,0-4,4.16v0a4.06,4.06,0,0,0,4,4.2A4,4,0,0,0,65.83,86.1Z"></path><path class="cls-1" d="M70.5,90.8l1.74-2.08a6.13,6.13,0,0,0,4,1.62c1.2,0,1.92-.48,1.92-1.26v0c0-.74-.45-1.13-2.69-1.7C72.77,86.65,71,85.91,71,83.26v0c0-2.43,2-4,4.68-4a7.7,7.7,0,0,1,5,1.7L79.15,83.1a6.29,6.29,0,0,0-3.48-1.31C74.55,81.79,74,82.3,74,83v0c0,.88.58,1.16,2.89,1.76,2.71.7,4.23,1.68,4.23,4v0c0,2.66-2,4.15-4.9,4.15A8.51,8.51,0,0,1,70.5,90.8Z"></path></svg>