							<svg xmlns="http://www.w3.org/2000/svg" id="Layer_1" data-name="Layer 1" viewBox="0 0 95 95"><defs><style>.cls-1{fill:#fff;}</style></defs><path class="cls-1" d="M59.64,1c.46.3.47.66.21,1.11C58.9,3.84,58,5.58,57,7.34a18.37,18.37,0,0,1,8.27,8.53,15.69,15.69,0,0,1,1.48,6.8H28.28c.26-7.07,3.81-12,9.82-15.36-.94-1.73-1.88-3.47-2.83-5.2C35,1.65,35,1.29,35.48,1h.38a5.45,5.45,0,0,1,.55.74c.93,1.67,1.84,3.35,2.78,5.05a21.12,21.12,0,0,1,16.72,0L59.14,1ZM37.22,14.12a1.54,1.54,0,0,0,1.52,1.64,1.59,1.59,0,0,0,1.65-1.58,1.65,1.65,0,0,0-1.6-1.67A1.62,1.62,0,0,0,37.22,14.12Zm19.11-1.61a1.64,1.64,0,0,0-1.6,1.59,1.59,1.59,0,1,0,3.17,0A1.62,1.62,0,0,0,56.33,12.51Z"></path><path class="cls-1" d="M66.65,24.26v.55q0,13.5,0,27a4.51,4.51,0,0,1-3.8,4.58c-.93.09-1.87,0-2.81,0H59c0,.26,0,.48,0,.7,0,2.88,0,5.76,0,8.63a4.27,4.27,0,0,1-5.36,4.28,4.21,4.21,0,0,1-3.15-3.49c-.06-.56-.06-1.12-.07-1.69V56.49H44.73c0,.25,0,.49,0,.73,0,2.84,0,5.67,0,8.51a4.27,4.27,0,1,1-8.53,0c0-2.86,0-5.72,0-8.57v-.76H33a4.42,4.42,0,0,1-4.47-4.37c0-9.17,0-18.35,0-27.52,0-.09,0-.17,0-.3Z"></path><path class="cls-1" d="M18.29,36.6c0-2.94,0-5.88,0-8.82a4.26,4.26,0,1,1,8.52,0c0,2.06,0,4.13,0,6.19V45.31a4.29,4.29,0,0,1-1.54,3.53,4.07,4.07,0,0,1-4.41.63,3.9,3.9,0,0,1-2.56-3.68c0-3.06,0-6.13,0-9.19Z"></path><path class="cls-1" d="M76.83,36.64c0,2.94,0,5.88,0,8.82a4.26,4.26,0,1,1-8.52-.14q0-7.35,0-14.7A33.59,33.59,0,0,1,68.39,27a4.14,4.14,0,0,1,4.29-3.57,4.1,4.1,0,0,1,4.11,3.84c.08,3.12,0,6.25,0,9.37Z"></path><path class="cls-1" d="M14.31,79.29H17l5.73,13.45H19.68l-1.22-3H12.8l-1.22,3h-3Zm3.1,7.86-1.78-4.33-1.78,4.33Z"></path><path class="cls-1" d="M24.5,82.51h2.91V84a3.59,3.59,0,0,1,3-1.64c2.2,0,3.48,1.45,3.48,3.8v6.62H31V87c0-1.38-.65-2.08-1.76-2.08s-1.81.7-1.81,2.08v5.7H24.5Z"></path><path class="cls-1" d="M35.94,87.65v0c0-3.42,2.23-5.29,4.66-5.29a3.92,3.92,0,0,1,3.18,1.53v-5h2.9V92.74h-2.9V91.27a3.74,3.74,0,0,1-3.18,1.67C38.21,92.94,35.94,91.06,35.94,87.65Zm7.88,0v0a2.51,2.51,0,1,0-5,0v0a2.51,2.51,0,1,0,5,0Z"></path><path class="cls-1" d="M49.28,82.51h2.9v2.06a3.17,3.17,0,0,1,3.27-2.25v3h-.16c-1.93,0-3.11,1.16-3.11,3.6v3.78h-2.9Z"></path><path class="cls-1" d="M56.47,87.69v0A5.38,5.38,0,0,1,62,82.32a5.31,5.31,0,0,1,5.51,5.29v0a5.54,5.54,0,0,1-11.07,0Zm8.21,0v0A2.72,2.72,0,0,0,62,84.82a2.62,2.62,0,0,0-2.65,2.79v0A2.71,2.71,0,0,0,62,90.47,2.62,2.62,0,0,0,64.68,87.69Z"></path><path class="cls-1" d="M69.7,78.81h3v2.58h-3Zm.08,3.7h2.9V92.74h-2.9Z"></path><path class="cls-1" d="M75,87.65v0c0-3.42,2.23-5.29,4.66-5.29a3.92,3.92,0,0,1,3.18,1.53v-5H85.7V92.74H82.79V91.27a3.74,3.74,0,0,1-3.18,1.67C77.22,92.94,75,91.06,75,87.65Zm7.88,0v0a2.51,2.51,0,1,0-5,0v0a2.51,2.51,0,1,0,5,0Z"></path></svg>