<?xml version="1.0" encoding="utf-8"?>
<svg viewBox="11.318 18.631 625.156 128.84" xmlns="http://www.w3.org/2000/svg">
  <path fill-rule="evenodd" clip-rule="evenodd" d="M 511.849 64.844 C 512.599 61.492 513.575 58.311 514.776 55.299 C 518.107 47.284 522.569 40.605 528.165 35.262 C 533.893 29.785 540.554 25.644 548.148 22.838 C 555.875 20.033 564.201 18.631 573.127 18.631 C 582.053 18.631 590.313 20.033 597.906 22.838 C 605.633 25.644 612.361 29.785 618.089 35.262 C 623.818 40.605 628.281 47.284 631.478 55.299 C 632.73 58.311 633.746 61.492 634.527 64.844 L 597.571 64.844 C 593.86 53.873 583.481 45.976 571.257 45.976 C 559.033 45.976 548.654 53.873 544.943 64.844 L 511.849 64.844 Z M 494.195 64.844 C 493.395 61.159 492.328 57.71 490.993 54.497 C 487.662 46.483 482.933 39.87 476.805 34.66 C 470.81 29.317 463.549 25.376 455.023 22.838 C 446.63 20.3 437.238 19.031 426.847 19.031 C 421.784 19.031 416.056 19.365 409.661 20.033 C 403.266 20.567 397.205 21.77 391.476 23.64 C 388.812 24.575 386.68 25.844 385.081 27.447 C 383.616 28.916 382.883 31.054 382.883 33.859 L 382.883 64.844 L 417.654 64.844 L 417.654 48.086 C 419.653 47.818 421.584 47.618 423.449 47.484 C 425.448 47.351 427.379 47.284 429.245 47.284 C 438.57 47.284 446.03 50.356 451.626 56.501 C 453.794 58.831 455.542 61.611 456.87 64.844 L 494.195 64.844 Z M 460.015 82.844 L 495.989 82.844 C 495.989 82.879 495.989 82.915 495.989 82.951 C 495.989 93.637 494.39 102.988 491.193 111.003 C 487.995 118.885 483.399 125.564 477.404 131.041 C 471.542 136.384 464.482 140.392 456.222 143.063 C 447.962 145.735 438.836 147.071 428.845 147.071 C 426.58 147.071 423.982 147.004 421.051 146.87 C 418.121 146.737 415.056 146.47 411.859 146.069 C 408.795 145.668 405.664 145.134 402.467 144.466 C 399.403 143.931 396.539 143.13 393.874 142.061 C 386.547 139.256 382.883 134.38 382.883 127.434 L 382.883 82.844 L 417.654 82.844 L 417.654 117.816 C 419.12 118.083 420.918 118.35 423.05 118.618 C 425.181 118.751 427.18 118.818 429.045 118.818 C 433.574 118.818 437.704 118.15 441.434 116.814 C 445.298 115.478 448.562 113.408 451.226 110.603 C 454.024 107.797 456.155 104.191 457.621 99.782 C 459.219 95.24 460.019 89.83 460.019 83.552 C 460.019 83.314 460.018 83.078 460.015 82.844 Z M 308.547 64.844 C 311.737 51.484 323.512 41.57 337.55 41.57 C 337.762 41.57 337.973 41.572 338.184 41.577 C 337.133 38.346 336.116 35.305 335.133 32.456 C 333.667 28.315 330.337 25.31 325.141 23.44 C 320.079 21.436 314.217 20.434 307.556 20.434 C 302.893 20.434 298.23 21.035 293.568 22.237 C 289.038 23.44 285.641 24.709 283.376 26.044 C 282.444 28.449 281.111 31.922 279.379 36.464 C 277.781 41.006 275.982 46.215 273.984 52.093 C 272.575 56.144 271.099 60.394 269.557 64.844 L 308.547 64.844 Z M 263.433 82.844 L 309.586 82.844 C 313.83 94.425 324.749 102.669 337.55 102.669 C 343.923 102.669 349.83 100.625 354.678 97.144 C 356.313 102.923 357.925 108.678 359.512 114.41 C 362.177 123.894 364.508 132.31 366.506 139.657 C 364.908 141.527 362.51 142.996 359.313 144.065 C 356.115 145.267 352.318 145.868 347.922 145.868 C 344.725 145.868 341.994 145.601 339.729 145.067 C 337.597 144.533 335.799 143.731 334.333 142.662 C 333.001 141.594 331.869 140.191 330.936 138.455 C 330.137 136.718 329.404 134.714 328.738 132.443 L 325.141 118.618 L 288.971 118.618 C 287.906 122.625 286.84 126.766 285.774 131.041 C 284.708 135.315 283.643 139.456 282.577 143.464 C 280.712 144.132 278.713 144.666 276.582 145.067 C 274.583 145.601 272.119 145.868 269.188 145.868 C 262.394 145.868 257.331 144.733 254.001 142.462 C 250.803 140.058 249.205 136.785 249.205 132.644 C 249.205 130.774 249.471 128.903 250.004 127.033 C 250.537 125.163 251.136 122.959 251.803 120.421 C 252.735 116.814 254.001 112.339 255.599 106.996 C 257.331 101.653 259.196 95.908 261.195 89.763 C 261.923 87.474 262.669 85.168 263.433 82.844 Z M 239.48 64.844 C 241.295 58.99 242.77 53.672 243.906 48.887 C 245.371 43.277 246.104 39.002 246.104 36.063 C 246.104 30.987 244.372 27.38 240.909 25.243 C 237.445 22.972 233.248 21.837 228.319 21.837 C 224.855 21.837 221.725 22.237 218.927 23.039 C 216.263 23.84 213.731 24.842 211.333 26.044 C 208.297 38.926 205.107 51.859 201.763 64.844 L 239.48 64.844 Z M 197.139 82.844 L 233.6 82.844 C 232.803 85.119 231.976 87.425 231.117 89.763 C 228.452 97.377 225.721 104.591 222.924 111.404 C 220.259 118.083 217.728 124.028 215.33 129.237 C 212.932 134.314 211 137.853 209.535 139.857 C 207.67 141.46 204.739 142.863 200.742 144.065 C 196.879 145.267 192.616 145.868 187.953 145.868 C 182.358 145.868 177.562 145.067 173.565 143.464 C 169.568 141.727 166.837 139.39 165.372 136.451 C 163.906 133.378 162.108 129.438 159.976 124.629 C 157.845 119.686 155.58 114.209 153.182 108.198 C 150.917 102.187 148.519 95.841 145.988 89.162 C 145.249 87.062 144.516 84.956 143.79 82.844 L 179.289 82.844 C 182.167 92.056 185.122 101.576 188.153 111.404 L 189.352 111.404 C 191.914 102.46 194.51 92.94 197.139 82.844 Z M 173.814 64.844 C 171.133 55.68 168.452 46.221 165.771 36.464 C 164.306 30.853 161.975 27.046 158.777 25.043 C 155.713 22.905 151.717 21.837 146.787 21.837 C 142.791 21.837 138.994 22.638 135.397 24.241 C 131.933 25.71 129.269 27.38 127.404 29.25 C 128.869 35.128 130.601 41.406 132.599 48.086 C 134.243 53.581 135.978 59.167 137.802 64.844 L 173.814 64.844 Z M 107.485 64.844 C 106.67 62.101 105.855 59.387 105.039 56.702 C 102.242 47.484 99.644 39.403 97.246 32.456 C 95.781 28.315 92.45 25.31 87.254 23.44 C 82.192 21.436 76.33 20.434 69.669 20.434 C 65.006 20.434 60.344 21.035 55.681 22.237 C 51.151 23.44 47.754 24.709 45.489 26.044 C 44.557 28.449 43.225 31.922 41.493 36.464 C 40.495 39.298 39.42 42.391 38.267 45.745 C 38.511 45.739 38.755 45.736 39 45.736 C 51.443 45.736 62.021 53.719 65.892 64.844 L 107.485 64.844 Z M 112.72 82.844 L 66.131 82.844 C 62.473 94.34 51.709 102.669 39 102.669 C 32.244 102.669 26.038 100.315 21.156 96.383 C 19.955 100.081 18.807 103.619 17.713 106.996 C 16.114 112.339 14.848 116.814 13.916 120.421 C 13.25 122.959 12.65 125.163 12.117 127.033 C 11.584 128.903 11.318 130.774 11.318 132.644 C 11.318 136.785 12.917 140.058 16.114 142.462 C 19.445 144.733 24.507 145.868 31.301 145.868 C 34.232 145.868 36.697 145.601 38.695 145.067 C 40.827 144.666 42.825 144.132 44.69 143.464 C 45.756 139.456 46.822 135.315 47.887 131.041 C 48.953 126.766 50.019 122.625 51.085 118.618 L 87.254 118.618 L 90.851 132.443 C 91.518 134.714 92.25 136.718 93.05 138.455 C 93.982 140.191 95.114 141.594 96.447 142.662 C 97.912 143.731 99.711 144.533 101.842 145.067 C 104.107 145.601 106.838 145.868 110.035 145.868 C 114.432 145.868 118.228 145.267 121.426 144.065 C 124.623 142.996 127.021 141.527 128.62 139.657 C 126.621 132.31 124.29 123.894 121.626 114.41 C 118.961 104.792 116.23 95.107 113.432 85.355 C 113.195 84.515 112.957 83.678 112.72 82.844 Z M 509.98 82.844 L 545.009 82.844 C 548.775 93.714 559.105 101.52 571.257 101.52 C 583.409 101.52 593.739 93.714 597.505 82.844 L 636.474 82.844 C 636.474 82.879 636.474 82.915 636.474 82.951 C 636.474 93.37 634.875 102.654 631.678 110.803 C 628.481 118.818 624.018 125.564 618.289 131.041 C 612.694 136.384 606.033 140.458 598.306 143.264 C 590.579 146.069 582.186 147.471 573.127 147.471 C 564.068 147.471 555.675 146.069 547.948 143.264 C 540.221 140.325 533.56 136.117 527.965 130.64 C 522.37 125.163 517.973 118.417 514.776 110.402 C 511.579 102.387 509.98 93.236 509.98 82.951 C 509.98 82.915 509.98 82.879 509.98 82.844 Z" fill="white"/>
</svg>